<svg id="visual" viewBox="0 0 900 600" width="900" height="600" xmlns="http://www.w3.org/2000/svg" xmlns:xlink="http://www.w3.org/1999/xlink" version="1.1"><path d="M403 600L389.2 580C375.3 560 347.7 520 374.5 480C401.3 440 482.7 400 496.7 360C510.7 320 457.3 280 448.7 240C440 200 476 160 505.7 120C535.3 80 558.7 40 570.3 20L582 0L900 0L900 20C900 40 900 80 900 120C900 160 900 200 900 240C900 280 900 320 900 360C900 400 900 440 900 480C900 520 900 560 900 580L900 600Z" fill="#69fa9e"></path><path d="M557 600L545 580C533 560 509 520 506.7 480C504.3 440 523.7 400 548.8 360C574 320 605 280 619 240C633 200 630 160 611.3 120C592.7 80 558.3 40 541.2 20L524 0L900 0L900 20C900 40 900 80 900 120C900 160 900 200 900 240C900 280 900 320 900 360C900 400 900 440 900 480C900 520 900 560 900 580L900 600Z" fill="#4ae07e"></path><path d="M785 600L762.7 580C740.3 560 695.7 520 667.2 480C638.7 440 626.3 400 654.7 360C683 320 752 280 784.8 240C817.7 200 814.3 160 796.7 120C779 80 747 40 731 20L715 0L900 0L900 20C900 40 900 80 900 120C900 160 900 200 900 240C900 280 900 320 900 360C900 400 900 440 900 480C900 520 900 560 900 580L900 600Z" fill="#24c75f"></path></svg>