<svg id="visual" viewBox="0 0 900 600" width="900" height="600" xmlns="http://www.w3.org/2000/svg" xmlns:xlink="http://www.w3.org/1999/xlink" version="1.1"><path d="M524 600L548.3 580C572.7 560 621.3 520 627 480C632.7 440 595.3 400 601 360C606.7 320 655.3 280 687.5 240C719.7 200 735.3 160 729 120C722.7 80 694.3 40 680.2 20L666 0L900 0L900 20C900 40 900 80 900 120C900 160 900 200 900 240C900 280 900 320 900 360C900 400 900 440 900 480C900 520 900 560 900 580L900 600Z" fill="#4ADE80" stroke-linecap="round" stroke-linejoin="miter"></path></svg>